<?xml version="1.0" encoding="iso-8859-1"?>
<svg class="w-10 h-10"
	 fill="none" stroke="url(#grad1)" viewBox="0 0 24 24" xmlns="http://www.w3.org/2000/svg">
	<defs>
		<linearGradient id="grad1" x1="0%" y1="0%" x2="100%" y2="0%">
			<stop offset="0%" style="stop-color:#7C3AED;stop-opacity:1" />
			<stop offset="100%" style="stop-color:#2563EB;stop-opacity:1" />
		</linearGradient>
	</defs>
	<path stroke-linecap="round" stroke-linejoin="round" stroke-width="2"
		  d="M6 4H5a1 1 0 1 1 0-2h11V1a1 1 0 0 0-1-1H4a2 2 0 0 0-2 2v16c0 1.1.9 2 2 2h12a2 2 0 0 0 2-2V5a1 1 0 0 0-1-1h-7v8l-2-2-2 2V4z">
	</path>
</svg>
