<svg data-v-423bf9ae="" xmlns="http://www.w3.org/2000/svg" viewBox="0 0 272 112" class="iconLeft"><!----><defs data-v-423bf9ae=""><linearGradient data-v-423bf9ae="" gradientTransform="rotate(25)" id="67aaf433-119c-4644-9695-3f35c3ed8b3c" x1="0%" y1="0%" x2="100%" y2="0%"><stop data-v-423bf9ae="" offset="0%" style="stop-color: rgb(141, 44, 227); stop-opacity: 1;"></stop><stop data-v-423bf9ae="" offset="100%" style="stop-color: rgb(247, 198, 246); stop-opacity: 1;"></stop></linearGradient></defs><!----><g data-v-423bf9ae="" id="63bd02e4-ac80-43e2-9bf6-a02b019a1232" fill="#ffffff" transform="matrix(4.5627377749464895,0,0,4.5627377749464895,78.77783002528564,11.135321132688865)"><path d="M4.27 13.61L4.27 13.61Q3.21 13.61 2.25 13.23L2.25 13.23L2.25 13.23Q1.29 12.85 0.77 12.25L0.77 12.25L1.02 11.91L1.02 11.91Q1.51 12.47 2.39 12.83L2.39 12.83L2.39 12.83Q3.26 13.19 4.26 13.19L4.26 13.19L4.26 13.19Q5.73 13.19 6.48 12.61L6.48 12.61L6.48 12.61Q7.22 12.03 7.22 11.12L7.22 11.12L7.22 11.12Q7.22 10.42 6.83 9.99L6.83 9.99L6.83 9.99Q6.44 9.56 5.87 9.34L5.87 9.34L5.87 9.34Q5.29 9.13 4.30 8.89L4.30 8.89L4.30 8.89Q3.23 8.62 2.59 8.37L2.59 8.37L2.59 8.37Q1.95 8.12 1.50 7.60L1.50 7.60L1.50 7.60Q1.05 7.08 1.05 6.22L1.05 6.22L1.05 6.22Q1.05 5.53 1.41 4.96L1.41 4.96L1.41 4.96Q1.78 4.38 2.53 4.04L2.53 4.04L2.53 4.04Q3.28 3.70 4.40 3.70L4.40 3.70L4.40 3.70Q5.19 3.70 5.97 3.93L5.97 3.93L5.97 3.93Q6.75 4.17 7.29 4.59L7.29 4.59L7.08 4.97L7.08 4.97Q6.51 4.55 5.80 4.33L5.80 4.33L5.80 4.33Q5.10 4.12 4.41 4.12L4.41 4.12L4.41 4.12Q2.98 4.12 2.25 4.71L2.25 4.71L2.25 4.71Q1.51 5.31 1.51 6.22L1.51 6.22L1.51 6.22Q1.51 6.93 1.91 7.36L1.91 7.36L1.91 7.36Q2.31 7.78 2.89 8.01L2.89 8.01L2.89 8.01Q3.47 8.23 4.45 8.47L4.45 8.47L4.45 8.47Q5.52 8.74 6.16 8.98L6.16 8.98L6.16 8.98Q6.80 9.23 7.25 9.74L7.25 9.74L7.25 9.74Q7.69 10.25 7.69 11.10L7.69 11.10L7.69 11.10Q7.69 11.79 7.32 12.36L7.32 12.36L7.32 12.36Q6.94 12.94 6.17 13.27L6.17 13.27L6.17 13.27Q5.40 13.61 4.27 13.61L4.27 13.61ZM13.20 12.75L13.44 13.09L13.44 13.09Q13.19 13.33 12.80 13.46L12.80 13.46L12.80 13.46Q12.40 13.59 11.98 13.59L11.98 13.59L11.98 13.59Q11.10 13.59 10.62 13.10L10.62 13.10L10.62 13.10Q10.14 12.60 10.14 11.73L10.14 11.73L10.14 6.69L8.76 6.69L8.76 6.29L10.14 6.29L10.14 4.69L10.60 4.69L10.60 6.29L12.99 6.29L12.99 6.69L10.60 6.69L10.60 11.66L10.60 11.66Q10.60 12.40 10.96 12.80L10.96 12.80L10.96 12.80Q11.33 13.19 12.03 13.19L12.03 13.19L12.03 13.19Q12.73 13.19 13.20 12.75L13.20 12.75ZM21.25 6.29L21.71 6.29L21.71 13.55L21.27 13.55L21.27 11.79L21.27 11.79Q20.93 12.64 20.19 13.12L20.19 13.12L20.19 13.12Q19.45 13.59 18.42 13.59L18.42 13.59L18.42 13.59Q17.01 13.59 16.21 12.81L16.21 12.81L16.21 12.81Q15.41 12.03 15.41 10.56L15.41 10.56L15.41 6.29L15.88 6.29L15.88 10.53L15.88 10.53Q15.88 11.82 16.54 12.49L16.54 12.49L16.54 12.49Q17.21 13.17 18.44 13.17L18.44 13.17L18.44 13.17Q19.74 13.17 20.50 12.37L20.50 12.37L20.50 12.37Q21.25 11.56 21.25 10.21L21.25 10.21L21.25 6.29ZM30.67 3.16L31.14 3.16L31.14 13.55L30.69 13.55L30.69 11.56L30.69 11.56Q30.28 12.52 29.45 13.05L29.45 13.05L29.45 13.05Q28.62 13.59 27.55 13.59L27.55 13.59L27.55 13.59Q26.56 13.59 25.75 13.13L25.75 13.13L25.75 13.13Q24.93 12.66 24.46 11.82L24.46 11.82L24.46 11.82Q24.00 10.98 24.00 9.91L24.00 9.91L24.00 9.91Q24.00 8.85 24.46 8.01L24.46 8.01L24.46 8.01Q24.93 7.17 25.75 6.70L25.75 6.70L25.75 6.70Q26.56 6.23 27.55 6.23L27.55 6.23L27.55 6.23Q28.60 6.23 29.44 6.76L29.44 6.76L29.44 6.76Q30.27 7.29 30.67 8.23L30.67 8.23L30.67 3.16ZM27.57 13.17L27.57 13.17Q28.45 13.17 29.16 12.76L29.16 12.76L29.16 12.76Q29.86 12.35 30.27 11.61L30.27 11.61L30.27 11.61Q30.67 10.86 30.67 9.91L30.67 9.91L30.67 9.91Q30.67 8.96 30.27 8.22L30.27 8.22L30.27 8.22Q29.86 7.49 29.16 7.08L29.16 7.08L29.16 7.08Q28.45 6.66 27.57 6.66L27.57 6.66L27.57 6.66Q26.68 6.66 25.98 7.08L25.98 7.08L25.98 7.08Q25.27 7.49 24.86 8.22L24.86 8.22L24.86 8.22Q24.46 8.96 24.46 9.91L24.46 9.91L24.46 9.91Q24.46 10.86 24.86 11.61L24.86 11.61L24.86 11.61Q25.27 12.35 25.98 12.76L25.98 12.76L25.98 12.76Q26.68 13.17 27.57 13.17L27.57 13.17ZM39.37 6.29L39.86 6.29L36.05 14.64L36.05 14.64Q35.64 15.55 35.13 15.93L35.13 15.93L35.13 15.93Q34.61 16.31 33.91 16.31L33.91 16.31L33.91 16.31Q33.42 16.31 33.00 16.15L33.00 16.15L33.00 16.15Q32.58 15.99 32.28 15.67L32.28 15.67L32.55 15.30L32.55 15.30Q32.84 15.62 33.17 15.76L33.17 15.76L33.17 15.76Q33.49 15.90 33.91 15.90L33.91 15.90L33.91 15.90Q34.45 15.90 34.85 15.60L34.85 15.60L34.85 15.60Q35.25 15.29 35.60 14.53L35.60 14.53L36.06 13.54L32.76 6.29L33.26 6.29L36.32 13.02L39.37 6.29ZM41.48 13.55L41.48 6.29L41.94 6.29L41.94 13.55L41.48 13.55ZM41.71 4.38L41.71 4.38Q41.52 4.38 41.38 4.25L41.38 4.25L41.38 4.25Q41.24 4.12 41.24 3.93L41.24 3.93L41.24 3.93Q41.24 3.74 41.38 3.60L41.38 3.60L41.38 3.60Q41.51 3.47 41.71 3.47L41.71 3.47L41.71 3.47Q41.89 3.47 42.03 3.60L42.03 3.60L42.03 3.60Q42.17 3.74 42.17 3.92L42.17 3.92L42.17 3.92Q42.17 4.10 42.03 4.24L42.03 4.24L42.03 4.24Q41.89 4.38 41.71 4.38L41.71 4.38Z"></path></g><!----><g data-v-423bf9ae="" id="fb1670e3-563c-4cba-89e9-684c9737c3ab" transform="matrix(1.1110912746853299,0,0,1.1110912746853299,0.8544367535960191,0.4462295421610989)" stroke="none" fill="#ffffff"><path d="M52.836 93.436h-1.52c-.886-1.011-1.216-2.276-.95-3.837.444-2.574 2.278-4.71 3.152-5.02l-.013-.024a3.28 3.28 0 0 0 2.164-3.07l.063-67.348c0-1.805-1.456-3.276-3.228-3.288 0 0-13.481-.012-17.176-.039.012-3.174.023-7.526.023-7.526 0-1.329-.771-2.519-1.987-3.03a3.231 3.231 0 0 0-3.53.688L7.277 23.579C3.316 27.56.19 35.083.177 40.741L0 87.856c-.012 6.591 5.278 11.99 11.824 12.017l41 .127c1.783 0 3.239-1.472 3.239-3.264v-.011c-.001-1.82-1.43-3.277-3.227-3.289M49.239 17.4c0 5.618-.05 55.179-.062 60.809H12.228l23.137-19.604-.048-41.231c2.1.012 11.974.026 13.922.026M6.481 87.869s.012-2.712.012-3.109h38.696c-.557 1.19-1 2.444-1.215 3.712-.304 1.752-.152 3.39.239 4.938l-32.367-.103c-2.96 0-5.365-2.431-5.365-5.438"></path></g><!----></svg>